<svg width="38" height="34" viewBox="0 0 38 34" fill="none" xmlns="http://www.w3.org/2000/svg">
<path d="M37.3327 18.3333C37.3327 20.1833 35.8327 21.6666 33.9994 21.6666H23.466L25.066 29.2833C25.0993 29.45 25.116 29.6333 25.116 29.8166C25.116 30.5 24.8327 31.1333 24.3827 31.5833L22.616 33.3333L11.6494 22.3666C11.0327 21.75 10.666 20.9166 10.666 20V3.33331C10.666 2.44926 11.0172 1.60141 11.6423 0.976292C12.2674 0.35117 13.1153 -1.90735e-05 13.9993 -1.90735e-05H28.9993C30.3827 -1.90735e-05 31.566 0.833313 32.066 2.03331L37.0993 13.7833C37.2494 14.1666 37.3327 14.5666 37.3327 15V18.3333ZM0.666016 -1.90735e-05H7.33268V20H0.666016V-1.90735e-05Z" fill="#D30000"/>
</svg>
