<svg width="18" height="18" viewBox="0 0 18 18" fill="none" xmlns="http://www.w3.org/2000/svg">
<path fill-rule="evenodd" clip-rule="evenodd" d="M8.57797 0.697203C8.92297 0.697203 9.20297 0.977203 9.20297 1.3222C9.20297 1.6672 8.92297 1.9472 8.57797 1.9472H5.46214C3.3088 1.9472 1.91797 3.4222 1.91797 5.7047V12.633C1.91797 14.9155 3.3088 16.3905 5.46214 16.3905H12.8155C14.9688 16.3905 16.3605 14.9155 16.3605 12.633V9.27637C16.3605 8.93137 16.6405 8.65137 16.9855 8.65137C17.3305 8.65137 17.6105 8.93137 17.6105 9.27637V12.633C17.6105 15.628 15.683 17.6405 12.8155 17.6405H5.46214C2.59464 17.6405 0.667969 15.628 0.667969 12.633V5.7047C0.667969 2.7097 2.59464 0.697203 5.46214 0.697203H8.57797ZM15.836 1.42937L16.8501 2.44354C17.3443 2.93687 17.616 3.5927 17.6151 4.29104C17.6151 4.98937 17.3435 5.64437 16.8501 6.13687L10.5926 12.3944C10.1335 12.8535 9.5218 13.1069 8.8718 13.1069H5.75014C5.5818 13.1069 5.42014 13.0385 5.30264 12.9177C5.18513 12.7977 5.12097 12.6352 5.12514 12.466L5.20347 9.31687C5.2193 8.6902 5.4718 8.10104 5.91514 7.65687L12.1435 1.42937C13.1618 0.412703 14.8176 0.412703 15.836 1.42937ZM11.6305 3.70937L6.7993 8.54104C6.58347 8.75687 6.46097 9.04354 6.45347 9.3477L6.39097 11.8569H8.8718C9.18847 11.8569 9.48514 11.7344 9.7093 11.5102L14.5696 6.64854L11.6305 3.70937ZM13.0268 2.31354L12.5138 2.8252L15.453 5.7652L15.9668 5.2527C16.2235 4.99604 16.3651 4.65437 16.3651 4.29104C16.3651 3.92687 16.2235 3.58437 15.9668 3.3277L14.9526 2.31354C14.4218 1.78437 13.5585 1.78437 13.0268 2.31354Z" fill="#A9B8CF"/>
</svg>
