<svg width="37" height="37" viewBox="0 0 37 37" fill="none" xmlns="http://www.w3.org/2000/svg">
<path fill-rule="evenodd" clip-rule="evenodd" d="M18.5801 0.667114C23.3684 0.667114 27.8684 2.52878 31.2484 5.91045C38.2351 12.8971 38.2351 24.2638 31.2484 31.2504C27.8234 34.6771 23.2117 36.4905 18.5401 36.4905C15.9934 36.4905 13.4301 35.9521 11.0317 34.8421C10.3251 34.5588 9.66341 34.2921 9.18841 34.2921C8.64174 34.2955 7.90674 34.5488 7.19674 34.7938C5.74008 35.2938 3.92674 35.9171 2.58508 34.5805C1.24841 33.2421 1.86508 31.4338 2.36174 29.9788C2.60674 29.2621 2.85841 28.5221 2.85841 27.9621C2.85841 27.5021 2.63674 26.9154 2.29674 26.0704C-0.824923 19.3288 0.618411 11.2038 5.91341 5.91211C9.29341 2.53045 13.7917 0.667114 18.5801 0.667114ZM18.5817 3.16711C14.4601 3.16711 10.5884 4.77045 7.68008 7.68045C3.12341 12.2338 1.88341 19.2254 4.59174 25.0804C4.98174 26.0454 5.35841 26.9855 5.35841 27.9621C5.35841 28.9371 5.02341 29.9188 4.72841 30.7855C4.48508 31.4988 4.11674 32.5755 4.35341 32.8121C4.58508 33.0521 5.66841 32.6738 6.38341 32.4288C7.24174 32.1355 8.21508 31.7988 9.18008 31.7921C10.1467 31.7921 11.0584 32.1588 12.0234 32.5471C17.9351 35.2804 24.9267 34.0371 29.4817 29.4838C35.4917 23.4705 35.4917 13.6888 29.4817 7.67878C26.5717 4.76878 22.7017 3.16711 18.5817 3.16711ZM25.1599 17.6049C26.0799 17.6049 26.8266 18.3499 26.8266 19.2716C26.8266 20.1933 26.0799 20.9383 25.1599 20.9383C24.2399 20.9383 23.4866 20.1933 23.4866 19.2716C23.4866 18.3499 24.2249 17.6049 25.1449 17.6049H25.1599ZM18.4786 17.6049C19.3986 17.6049 20.1452 18.3499 20.1452 19.2716C20.1452 20.1933 19.3986 20.9383 18.4786 20.9383C17.5586 20.9383 16.8052 20.1933 16.8052 19.2716C16.8052 18.3499 17.5419 17.6049 18.4636 17.6049H18.4786ZM11.7966 17.6049C12.7166 17.6049 13.4632 18.3499 13.4632 19.2716C13.4632 20.1933 12.7166 20.9383 11.7966 20.9383C10.8766 20.9383 10.1232 20.1933 10.1232 19.2716C10.1232 18.3499 10.8616 17.6049 11.7816 17.6049H11.7966Z" fill="#B0C0D2"/>
</svg>
