<svg width="25" height="37" viewBox="0 0 25 37" fill="none" xmlns="http://www.w3.org/2000/svg">
<path d="M3.75723 7.65495L8.37965 3.115L12.9972 7.67992L8.35505 12.2198L3.75723 7.65495Z" fill="#5DAA1A"/>
<path d="M16.1698 0.0409703C16.7378 1.28045 16.7378 1.28045 16.7378 1.28045C14.0747 2.53116 13.3907 7.76063 13.3659 9.67738C13.3342 21.3779 13.3342 21.3779 13.3342 21.3779C11.9748 21.3942 11.9748 21.3942 11.9748 21.3942C12.0066 9.6138 12.0066 9.6138 12.0066 9.6138C11.9878 9.29428 12.1653 1.927 16.1698 0.0409703Z" fill="#5DAA1A"/>
<path d="M24.0923 13.4595L0.962891 13.397L0.901372 36.159L24.0308 36.2215L24.0923 13.4595Z" fill="#E33226"/>
<path d="M12.6797 15.7446L21.5847 15.7687L21.5603 24.7936L12.6797 15.7446Z" fill="white"/>
</svg>
