<svg width="17" height="22" viewBox="0 0 17 22" fill="none" xmlns="http://www.w3.org/2000/svg">
<path d="M11.6992 0.166626C14.5221 0.166626 16.8034 1.32579 16.8346 4.27246V20.7175C16.8346 20.9016 16.793 21.0858 16.7096 21.2483C16.5742 21.5083 16.3451 21.7033 16.0638 21.79C15.793 21.8766 15.4909 21.8333 15.2409 21.6816L8.49089 18.1716L1.73047 21.6816C1.57526 21.7672 1.39714 21.8225 1.22005 21.8225C0.636719 21.8225 0.167969 21.3241 0.167969 20.7175V4.27246C0.167969 1.32579 2.45964 0.166626 5.27214 0.166626H11.6992ZM12.4076 6.70996H4.5638C4.11589 6.70996 3.7513 7.08913 3.7513 7.56579C3.7513 8.04138 4.11589 8.42163 4.5638 8.42163H12.4076C12.8555 8.42163 13.2201 8.04138 13.2201 7.56579C13.2201 7.08913 12.8555 6.70996 12.4076 6.70996Z" fill="#EE8F00"/>
</svg>
