<svg width="23" height="28" viewBox="0 0 23 28" fill="none" xmlns="http://www.w3.org/2000/svg">
<path fill-rule="evenodd" clip-rule="evenodd" d="M14.6348 0.667114C14.6921 0.667114 14.7484 0.671955 14.8031 0.681251L14.9833 0.682314C15.2553 0.682314 15.5153 0.792981 15.7046 0.988981L22.4593 8.02498C22.6366 8.21031 22.7367 8.45965 22.7367 8.71698V20.9703C22.758 24.3156 20.15 27.0343 16.7993 27.1543H5.94595C2.69232 27.0844 0.0828914 24.4552 0.00244068 21.2346L0.00195312 6.65431C0.0806198 3.34631 2.81129 0.682314 6.09395 0.682314L14.4664 0.681251C14.5211 0.671955 14.5774 0.667114 14.6348 0.667114ZM13.634 2.68178L6.09795 2.68231C3.88862 2.68231 2.05395 4.47165 2.00195 6.67831V20.9703C1.95395 23.2383 3.74062 25.105 5.98729 25.1543H16.7646C18.99 25.0743 20.7513 23.2383 20.7367 20.977L20.7366 9.97778L18.0588 9.97911C15.6174 9.97245 13.6348 7.98311 13.6348 5.54578L13.634 2.68178ZM10.8558 10.2123C11.1318 10.2123 11.3818 10.3243 11.5628 10.5053L11.5642 10.5062L14.6922 13.6475C15.0816 14.0395 15.0802 14.6715 14.6896 15.0608C14.2976 15.4502 13.6642 15.4502 13.2749 15.0582L11.8553 13.6324L11.8558 19.267C11.8558 19.819 11.4078 20.267 10.8558 20.267C10.3038 20.267 9.85582 19.819 9.85582 19.267L9.85529 13.6324L8.43755 15.0582C8.24289 15.2555 7.98555 15.3528 7.72955 15.3528C7.47489 15.3528 7.21889 15.2555 7.02422 15.0608C6.63355 14.6715 6.63089 14.0395 7.02155 13.6475L10.1469 10.5062L10.1915 10.4651C10.2108 10.4479 10.2307 10.4315 10.2513 10.4158L10.1469 10.5062C10.1841 10.4689 10.2241 10.4352 10.2664 10.4053C10.4311 10.2839 10.6351 10.2123 10.8558 10.2123ZM15.634 3.80311L15.6348 5.54578C15.6348 6.88445 16.7228 7.97511 18.0614 7.97911L19.6406 7.97778L15.634 3.80311Z" fill="#EE8F00"/>
</svg>
