<svg width="21" height="20" viewBox="0 0 21 20" fill="none" xmlns="http://www.w3.org/2000/svg">
<path fill-rule="evenodd" clip-rule="evenodd" d="M17.2859 11.9926C19.2879 11.9926 20.9166 13.6131 20.9166 15.6046C20.9166 17.5961 19.2879 19.2166 17.2859 19.2166C15.2827 19.2166 13.6529 17.5961 13.6529 15.6046C13.6529 13.6131 15.2827 11.9926 17.2859 11.9926ZM17.2859 13.7426C16.2476 13.7426 15.4029 14.578 15.4029 15.6046C15.4029 16.6325 16.2476 17.4666 17.2859 17.4666C18.3231 17.4666 19.1666 16.6325 19.1666 15.6046C19.1666 14.578 18.3231 13.7426 17.2859 13.7426ZM8.76035 14.7749C9.24335 14.7749 9.63535 15.1669 9.63535 15.6499C9.63535 16.1329 9.24335 16.5249 8.76035 16.5249H1.40918C0.926183 16.5249 0.534183 16.1329 0.534183 15.6499C0.534183 15.1669 0.926183 14.7749 1.40918 14.7749H8.76035ZM4.13183 0.666626C6.135 0.666626 7.76367 2.28829 7.76367 4.27979C7.76367 6.27129 6.135 7.89063 4.13183 7.89063C2.12983 7.89063 0.5 6.27129 0.5 4.27979C0.5 2.28829 2.12983 0.666626 4.13183 0.666626ZM4.13183 2.41663C3.09467 2.41663 2.25 3.25196 2.25 4.27979C2.25 5.30646 3.09467 6.14063 4.13183 6.14063C5.17017 6.14063 6.01367 5.30646 6.01367 4.27979C6.01367 3.25196 5.17017 2.41663 4.13183 2.41663ZM19.3896 3.46709C19.8726 3.46709 20.2646 3.85909 20.2646 4.34209C20.2646 4.82509 19.8726 5.21709 19.3896 5.21709H12.0396C11.5566 5.21709 11.1646 4.82509 11.1646 4.34209C11.1646 3.85909 11.5566 3.46709 12.0396 3.46709H19.3896Z" fill="black"/>
</svg>
