<svg width="33" height="28" viewBox="0 0 33 28" fill="none" xmlns="http://www.w3.org/2000/svg">
<path d="M0 14.4514C0 13.692 0.564308 13.0644 1.29646 12.9651L1.5 12.9514L27.868 12.9526L18.342 3.46554C17.755 2.88102 17.7529 1.93127 18.3375 1.34422C18.8688 0.810547 19.7021 0.76034 20.2902 1.19478L20.4588 1.33966L32.5588 13.3877C32.6362 13.4647 32.7034 13.5481 32.7604 13.6362C32.7765 13.6627 32.7929 13.6898 32.8085 13.7174C32.8228 13.7412 32.8357 13.7658 32.8479 13.7907C32.8648 13.8269 32.8814 13.8643 32.8964 13.9025C32.9086 13.9319 32.9188 13.9606 32.9281 13.9894C32.9391 14.0252 32.9499 14.0633 32.9591 14.1021C32.966 14.1291 32.9714 14.1551 32.9762 14.1812C32.9828 14.2201 32.9885 14.2603 32.9926 14.301C32.9961 14.332 32.9982 14.3628 32.9993 14.3936C32.9996 14.4122 33 14.4318 33 14.4514L32.9992 14.5095C32.9981 14.5389 32.9961 14.5684 32.9932 14.5977L33 14.4514C33 14.5461 32.9912 14.6387 32.9745 14.7285C32.9706 14.7499 32.9659 14.7719 32.9608 14.7938C32.9502 14.839 32.9378 14.8825 32.9237 14.9251C32.9167 14.9463 32.9086 14.9689 32.8999 14.9914C32.8824 15.0365 32.8633 15.0795 32.8424 15.1215C32.8327 15.1412 32.8218 15.1618 32.8103 15.1822C32.7916 15.2155 32.7723 15.2472 32.7519 15.2781C32.7374 15.2999 32.7215 15.3226 32.7048 15.345L32.6919 15.3623C32.6514 15.4151 32.6076 15.4651 32.5607 15.5121L32.5589 15.5135L20.4589 27.5635C19.8719 28.148 18.9221 28.1461 18.3375 27.5591C17.8061 27.0254 17.7594 26.192 18.1964 25.6057L18.3419 25.4377L27.864 15.9526L1.5 15.9514C0.671573 15.9514 0 15.2798 0 14.4514Z" fill="black"/>
</svg>
