<svg width="40" height="40" viewBox="0 0 40 40" fill="none" xmlns="http://www.w3.org/2000/svg">
<path d="M38.3327 16.6666C38.3327 14.8166 36.8327 13.3333 34.9994 13.3333H24.466L26.066 5.71663C26.0993 5.54996 26.116 5.36663 26.116 5.18329C26.116 4.49996 25.8327 3.86663 25.3827 3.41663L23.616 1.66663L12.6494 12.6333C12.0327 13.25 11.666 14.0833 11.666 15V31.6666C11.666 32.5507 12.0172 33.3985 12.6423 34.0236C13.2674 34.6488 14.1153 35 14.9993 35H29.9993C31.3827 35 32.566 34.1666 33.066 32.9666L38.0993 21.2166C38.2494 20.8333 38.3327 20.4333 38.3327 20V16.6666ZM1.66602 35H8.33268V15H1.66602V35Z" fill="#07B843"/>
</svg>
