<svg width="16" height="18" viewBox="0 0 16 18" fill="none" xmlns="http://www.w3.org/2000/svg">
<path d="M13.9749 3.12964C12.6008 1.14086 10.423 0 8.00032 0C5.57766 0 3.39984 1.14086 2.02569 3.12964C0.658287 5.10838 0.342549 7.61351 1.17941 9.82677C1.40325 10.4312 1.75906 11.0184 2.23445 11.5687L7.52117 17.7784C7.64074 17.919 7.81592 18 8.00032 18C8.18471 18 8.35989 17.919 8.47946 17.7784L13.7647 11.5703C14.2422 11.0169 14.5976 10.4303 14.8195 9.83078C15.6581 7.61351 15.3423 5.10838 13.9749 3.12964ZM13.641 9.38999C13.4698 9.85257 13.1903 10.3099 12.8108 10.7498C12.8098 10.7509 12.8087 10.7519 12.8079 10.7532L8.00032 16.3999L3.18982 10.7497C2.81052 10.3101 2.53106 9.85282 2.3582 9.3858C1.66611 7.55539 1.92876 5.48413 3.06101 3.84546C4.1968 2.20155 5.99722 1.25873 8.00032 1.25873C10.0034 1.25873 11.8036 2.20152 12.9394 3.84546C14.0719 5.48413 14.3347 7.55539 13.641 9.38999Z" fill="#EE8F00"/>
<path d="M8.00105 3.73425C6.05775 3.73425 4.47656 5.31523 4.47656 7.25874C4.47656 9.20224 6.05754 10.7832 8.00105 10.7832C9.94456 10.7832 11.5255 9.20224 11.5255 7.25874C11.5255 5.31544 9.94435 3.73425 8.00105 3.73425ZM8.00105 9.52445C6.75174 9.52445 5.7353 8.50801 5.7353 7.2587C5.7353 6.00939 6.75174 4.99295 8.00105 4.99295C9.25036 4.99295 10.2668 6.00939 10.2668 7.2587C10.2668 8.50801 9.25036 9.52445 8.00105 9.52445Z" fill="#EE8F00"/>
</svg>
