<svg width="18" height="22" viewBox="0 0 18 22" fill="none" xmlns="http://www.w3.org/2000/svg">
<path d="M10.7371 18.8383C11.0309 18.5762 11.4817 18.5599 11.7953 18.8172C12.1403 19.1002 12.1887 19.607 11.9034 19.9491C11.1999 20.8614 10.1116 21.4011 8.95368 21.4118L8.72378 21.4021C7.65617 21.3247 6.66804 20.7982 6.01339 19.9491L5.94381 19.852C5.73929 19.5167 5.80777 19.0744 6.12142 18.8172C6.46643 18.5342 6.97743 18.5821 7.26278 18.9243C7.38809 19.0904 7.53678 19.2379 7.70429 19.3622C8.15204 19.6928 8.71432 19.8325 9.26634 19.7503C9.81837 19.6681 10.3145 19.3708 10.6446 18.9243H10.654L10.7371 18.8383ZM8.96307 0.235352C12.2134 0.235352 15.8582 2.52722 16.2715 6.20725V8.12645C16.4126 8.81914 16.7368 9.46219 17.2109 9.98976C17.239 10.0216 17.2642 10.0559 17.2861 10.0922C17.7159 10.7393 17.9625 11.489 18 12.263L17.9718 12.4586C18.0042 13.5178 17.6507 14.553 16.9761 15.3747C16.1145 16.3043 14.9368 16.885 13.6694 17.0051C10.5476 17.3478 7.39728 17.3478 4.27552 17.0051C3.02669 16.8769 1.86942 16.2964 1.02523 15.3747C0.339476 14.5648 -0.0246207 13.5345 0.00129396 12.4773V12.3468C0.0529409 11.5497 0.318923 10.7809 0.771594 10.1202L0.846745 10.027C1.31751 9.49723 1.64124 8.85511 1.78613 8.16372V6.24451L1.83808 6.1373C1.99601 5.86511 2.30361 5.70591 2.62576 5.74077C2.98819 5.77998 3.27923 6.05507 3.33613 6.41221V8.33142C3.33978 8.36548 3.33978 8.39983 3.33613 8.4339C3.14053 9.39505 2.69345 10.2883 2.03977 11.0239C1.78803 11.4216 1.64554 11.8777 1.62644 12.3468V12.5518C1.60558 13.2117 1.82576 13.8568 2.24644 14.3685C2.82967 14.966 3.6096 15.3362 4.44461 15.412C7.46679 15.7381 10.5157 15.7381 13.5379 15.412C14.3957 15.3339 15.1947 14.946 15.783 14.3219C16.1831 13.8223 16.3926 13.1988 16.3749 12.5611V12.3468C16.3556 11.8761 16.2166 11.4178 15.9709 11.0146C15.29 10.2873 14.8166 9.39335 14.5994 8.42458C14.5958 8.39052 14.5958 8.35616 14.5994 8.3221V6.39358C14.327 3.57999 11.4994 1.83779 9.03822 1.83779C7.99185 1.83541 6.96269 2.10181 6.05096 2.61107L5.9393 2.66649C5.70973 2.75919 5.44709 2.74292 5.2288 2.6171C4.97413 2.47032 4.8202 2.1977 4.82708 1.90565C4.83396 1.6136 5.00057 1.34841 5.26188 1.21359C6.39163 0.580604 7.66553 0.24391 8.96307 0.235352Z" fill="#566B8B"/>
</svg>
