<svg width="18" height="19" viewBox="0 0 18 19" fill="none" xmlns="http://www.w3.org/2000/svg">
<path fill-rule="evenodd" clip-rule="evenodd" d="M4.01229 0.00047953C4.97461 0.0137963 5.66039 0.756869 6.52795 1.69703C6.74247 1.92874 6.97422 2.18176 7.23354 2.44809C8.49052 3.74425 8.13298 4.8016 7.84437 5.65032C7.53077 6.57628 7.25939 7.37528 8.88423 9.04964C10.5091 10.724 11.2836 10.4443 12.1813 10.1185C13.0058 9.82201 14.0293 9.45091 15.2888 10.7471C15.5447 11.0107 15.7859 11.2469 16.0099 11.4662C16.9257 12.3646 17.6494 13.074 17.6616 14.0683C17.671 14.9152 17.1713 15.7799 15.9376 17.0512L15.3914 16.6695L15.854 17.1338C15.5809 17.4223 14.8546 18.1911 13.4322 18.2H13.4064C11.2595 18.2 8.46036 16.4386 5.08661 12.963C1.69908 9.47311 -0.0127785 6.57983 7.18106e-05 4.36304C0.0078982 2.8982 0.753121 2.14802 1.03312 1.8666L1.05702 1.8397L1.11496 1.77959C2.35126 0.505627 3.20073 -0.0181639 4.01229 0.00047953ZM3.99592 1.33215H3.98902C3.60214 1.33215 3.01461 1.73165 2.19517 2.55187L2.03062 2.71839L2.03249 2.71798C2.03249 2.71798 2.01843 2.7346 1.99447 2.75978L1.93686 2.81919C1.72837 3.02781 1.29675 3.46194 1.29239 4.37014C1.28555 5.64056 2.09625 7.99939 5.99983 12.021C9.88447 16.0232 12.1701 16.8683 13.4064 16.8683H13.4245C14.3058 16.863 14.7263 16.4182 14.9287 16.2043C14.9899 16.1395 15.0399 16.0906 15.0752 16.0613C15.9341 15.1709 16.3735 14.5095 16.3692 14.0842C16.364 13.651 15.8411 13.1396 15.1183 12.4303C14.8882 12.2057 14.6384 11.9598 14.3748 11.6881C13.6907 10.9859 13.3538 11.1057 12.6086 11.3756C11.5791 11.7476 10.1688 12.2572 7.97101 9.99069C5.77239 7.72595 6.26519 6.27266 6.62444 5.21087C6.88462 4.44383 7.00352 4.09493 6.32032 3.39003C6.05325 3.11482 5.81288 2.85381 5.59147 2.61411C4.90742 1.8737 4.41376 1.33837 3.99592 1.33215ZM11.412 3.15876C13.2049 3.51743 14.5894 4.9432 14.9383 6.79156C15.0063 7.15378 14.778 7.50268 14.4283 7.57281C14.386 7.5808 14.3447 7.58524 14.3033 7.58524C14.0001 7.58524 13.7304 7.36507 13.6701 7.04725C13.422 5.73333 12.439 4.72037 11.1657 4.46558C10.815 4.39544 10.5867 4.04654 10.6548 3.68522C10.7228 3.32389 11.0674 3.08774 11.412 3.15876ZM11.3604 0.00553988C14.8738 0.407705 17.6022 3.21576 17.9959 6.83524C18.0356 7.20101 17.7806 7.53038 17.4265 7.57121C17.4023 7.57388 17.3774 7.57565 17.3532 7.57565C17.0284 7.57565 16.7493 7.32441 16.7123 6.98439C16.3857 3.98724 14.1268 1.66125 11.2174 1.32833C10.8633 1.2875 10.6075 0.959017 10.6471 0.593251C10.6859 0.228373 11.002 -0.0406248 11.3604 0.00553988Z" fill="#EE8F00"/>
</svg>
