<svg width="163" height="38" viewBox="0 0 163 38" fill="none" xmlns="http://www.w3.org/2000/svg">
<path d="M15.72 37.52C12.6693 37.52 10 37.0173 7.712 36.012C5.424 34.972 3.656 33.3947 2.408 31.28C1.16 29.1307 0.536 26.4093 0.536 23.116V1.9C0.536 1.51866 0.657334 1.20666 0.9 0.963999C1.14267 0.721331 1.45467 0.599998 1.836 0.599998H7.504C7.88533 0.599998 8.19733 0.721331 8.44 0.963999C8.68267 1.20666 8.804 1.51866 8.804 1.9V23.064C8.804 25.6293 9.41067 27.536 10.624 28.784C11.8373 30.032 13.536 30.656 15.72 30.656C17.8693 30.656 19.5507 30.032 20.764 28.784C21.9773 27.536 22.584 25.6293 22.584 23.064V1.9C22.584 1.51866 22.7053 1.20666 22.948 0.963999C23.2253 0.721331 23.5373 0.599998 23.884 0.599998H29.604C29.9507 0.599998 30.2453 0.721331 30.488 0.963999C30.7307 1.20666 30.852 1.51866 30.852 1.9V23.116C30.852 26.4093 30.228 29.1307 28.98 31.28C27.732 33.3947 25.9813 34.972 23.728 36.012C21.4747 37.0173 18.8053 37.52 15.72 37.52ZM70.0933 37C69.712 37 69.4 36.8787 69.1573 36.636C68.9146 36.3933 68.7933 36.0813 68.7933 35.7V1.9C68.7933 1.51866 68.9146 1.20666 69.1573 0.963999C69.4 0.721331 69.712 0.599998 70.0933 0.599998H93.6493C94.0306 0.599998 94.3426 0.721331 94.5853 0.963999C94.828 1.20666 94.9493 1.51866 94.9493 1.9V6.06C94.9493 6.40666 94.828 6.70133 94.5853 6.944C94.3426 7.18667 94.0306 7.308 93.6493 7.308H76.8013V15.472H92.5053C92.8866 15.472 93.1986 15.5933 93.4413 15.836C93.684 16.0787 93.8053 16.3907 93.8053 16.772V20.62C93.8053 20.9667 93.684 21.2613 93.4413 21.504C93.1986 21.7467 92.8866 21.868 92.5053 21.868H76.8013V30.292H94.0653C94.4466 30.292 94.7586 30.4133 95.0013 30.656C95.244 30.8987 95.3653 31.2107 95.3653 31.592V35.7C95.3653 36.0813 95.244 36.3933 95.0013 36.636C94.7586 36.8787 94.4466 37 94.0653 37H70.0933ZM113.715 37.52C111.774 37.52 109.937 37.2773 108.203 36.792C106.47 36.3067 104.927 35.5787 103.575 34.608C102.223 33.6027 101.149 32.372 100.351 30.916C99.5886 29.46 99.1726 27.7613 99.1032 25.82C99.1032 25.508 99.2072 25.248 99.4152 25.04C99.6232 24.7973 99.9006 24.676 100.247 24.676H106.175C106.626 24.676 106.973 24.7973 107.215 25.04C107.493 25.2827 107.701 25.6293 107.839 26.08C108.013 27.1893 108.377 28.0907 108.931 28.784C109.486 29.4773 110.179 29.9973 111.011 30.344C111.878 30.656 112.849 30.812 113.923 30.812C115.899 30.812 117.407 30.1707 118.447 28.888C119.522 27.6053 120.059 25.7853 120.059 23.428V7.516H102.743C102.397 7.516 102.102 7.39467 101.859 7.152C101.617 6.90933 101.495 6.61467 101.495 6.268V1.9C101.495 1.51866 101.617 1.20666 101.859 0.963999C102.102 0.721331 102.397 0.599998 102.743 0.599998H127.235C127.617 0.599998 127.929 0.721331 128.171 0.963999C128.414 1.20666 128.535 1.51866 128.535 1.9V23.636C128.535 26.6173 127.911 29.148 126.663 31.228C125.415 33.2733 123.682 34.8333 121.463 35.908C119.245 36.9827 116.662 37.52 113.715 37.52ZM134.046 37C133.87 37 133.726 36.944 133.614 36.832C133.502 36.72 133.446 36.576 133.446 36.4V33.712C133.446 33.536 133.502 33.392 133.614 33.28C133.726 33.168 133.87 33.112 134.046 33.112H136.734C136.91 33.112 137.054 33.168 137.166 33.28C137.278 33.392 137.334 33.536 137.334 33.712V36.4C137.334 36.576 137.278 36.72 137.166 36.832C137.054 36.944 136.91 37 136.734 37H134.046ZM140.799 37C140.639 37 140.503 36.944 140.391 36.832C140.279 36.72 140.223 36.576 140.223 36.4V25.12C140.223 24.96 140.279 24.824 140.391 24.712C140.503 24.584 140.639 24.52 140.799 24.52H143.151C143.311 24.52 143.447 24.584 143.559 24.712C143.687 24.824 143.751 24.96 143.751 25.12V26.08C144.151 25.584 144.639 25.2 145.215 24.928C145.807 24.656 146.487 24.52 147.255 24.52H148.287C148.447 24.52 148.583 24.576 148.695 24.688C148.807 24.8 148.863 24.944 148.863 25.12V27.184C148.863 27.36 148.807 27.504 148.695 27.616C148.583 27.728 148.447 27.784 148.287 27.784H146.175C145.471 27.784 144.919 27.984 144.519 28.384C144.119 28.768 143.919 29.32 143.919 30.04V36.4C143.919 36.576 143.863 36.72 143.751 36.832C143.639 36.944 143.495 37 143.319 37H140.799ZM155.237 37.24C154.309 37.24 153.485 37.032 152.765 36.616C152.061 36.184 151.509 35.568 151.109 34.768C150.725 33.952 150.533 32.968 150.533 31.816V25.12C150.533 24.944 150.589 24.8 150.701 24.688C150.813 24.576 150.949 24.52 151.109 24.52H153.653C153.829 24.52 153.973 24.576 154.085 24.688C154.197 24.8 154.253 24.944 154.253 25.12V31.672C154.253 33.464 155.037 34.36 156.605 34.36C157.357 34.36 157.949 34.128 158.381 33.664C158.829 33.184 159.053 32.52 159.053 31.672V25.12C159.053 24.944 159.109 24.8 159.221 24.688C159.333 24.576 159.477 24.52 159.653 24.52H162.197C162.357 24.52 162.493 24.576 162.605 24.688C162.717 24.8 162.773 24.944 162.773 25.12V36.4C162.773 36.576 162.717 36.72 162.605 36.832C162.493 36.944 162.357 37 162.197 37H159.845C159.669 37 159.525 36.944 159.413 36.832C159.301 36.72 159.245 36.576 159.245 36.4V35.464C158.829 36.04 158.293 36.48 157.637 36.784C156.981 37.088 156.181 37.24 155.237 37.24Z" fill="#1D1D1D"/>
<path d="M39.523 37C39.1417 37 38.8297 36.8787 38.587 36.636C38.3443 36.3933 38.223 36.0813 38.223 35.7V1.9C38.223 1.51866 38.3443 1.20666 38.587 0.963999C38.8297 0.721331 39.1417 0.599998 39.523 0.599998H45.295C45.6763 0.599998 45.9883 0.721331 46.231 0.963999C46.4737 1.20666 46.595 1.51866 46.595 1.9V30.032H62.715C63.0963 30.032 63.4083 30.1533 63.651 30.396C63.8937 30.6387 64.015 30.9507 64.015 31.332V35.7C64.015 36.0813 63.8937 36.3933 63.651 36.636C63.4083 36.8787 63.0963 37 62.715 37H39.523Z" fill="#EE8F00"/>
</svg>
