<svg width="12" height="24" viewBox="0 0 12 24" fill="none" xmlns="http://www.w3.org/2000/svg">
<path d="M3.955 1.23613C4.95941 0.345195 6.3813 0.0423731 7.72885 0.00730571C9.15113 -0.00438343 10.5734 0.00146114 11.9953 0.00146114C12.0016 1.40489 12.0016 2.80247 11.9953 4.2059C11.0785 4.2059 10.1551 4.2059 9.23838 4.2059C8.65812 4.17083 8.05947 4.58433 7.95344 5.12605C7.94092 6.06374 7.94718 7.00106 7.94718 7.93875C9.29434 7.9446 10.6419 7.93875 11.989 7.9446C11.8893 9.30127 11.7085 10.6525 11.4964 11.992C10.305 12.0037 9.11357 11.992 7.92214 11.9978C7.90962 15.9984 7.9284 19.9932 7.91588 23.9942C6.14419 24 4.37915 23.9883 2.60745 24C2.57615 19.9994 2.60745 15.9988 2.58867 11.9978C1.72787 11.992 0.860804 12.0037 0 11.992C0.00626039 10.6466 0 9.30163 0 7.96213C0.860804 7.95044 1.72787 7.96213 2.58867 7.95629C2.61371 6.65185 2.56363 5.34157 2.61371 4.03714C2.70762 2.99498 3.1255 1.95245 3.955 1.23613Z" fill="#7B9095"/>
</svg>
