<svg width="18" height="23" viewBox="0 0 18 23" fill="none" xmlns="http://www.w3.org/2000/svg">
<path d="M12.3245 0.25C15.2604 0.25 17.6329 1.45375 17.6654 4.51375V21.5913C17.6654 21.7825 17.622 21.9738 17.5354 22.1425C17.3945 22.4125 17.1562 22.615 16.8637 22.705C16.582 22.795 16.2679 22.75 16.0079 22.5925L8.98787 18.9475L1.95703 22.5925C1.79561 22.6814 1.61036 22.7388 1.4262 22.7388C0.819531 22.7388 0.332031 22.2213 0.332031 21.5913V4.51375C0.332031 1.45375 2.71536 0.25 5.64036 0.25H12.3245ZM13.0612 7.045H4.9037C4.43786 7.045 4.0587 7.43875 4.0587 7.93375C4.0587 8.42762 4.43786 8.8225 4.9037 8.8225H13.0612C13.527 8.8225 13.9062 8.42762 13.9062 7.93375C13.9062 7.43875 13.527 7.045 13.0612 7.045Z" fill="#A9B8CF"/>
</svg>
