<svg width="15" height="24" viewBox="0 0 15 24" fill="none" xmlns="http://www.w3.org/2000/svg">
<path d="M14.2119 12.8896C13.8759 12.2055 12.9277 11.6295 11.6676 12.6016C9.95137 13.9697 7.21503 13.9697 7.21503 13.9697C7.21503 13.9697 4.47868 13.9697 2.76247 12.6016C1.50231 11.6295 0.554193 12.2055 0.218151 12.8896C-0.381924 14.0898 0.29016 14.6778 1.81435 15.65C3.12251 16.4901 4.91074 16.8021 6.06288 16.9221L5.10276 17.8822C3.73459 19.2384 2.41443 20.5466 1.51431 21.4587C0.974245 22.0107 0.974245 22.8869 1.51431 23.4029L1.68233 23.5949C2.2224 24.135 3.11051 24.135 3.65058 23.5949L7.21503 20.0185C8.5952 21.3747 9.90336 22.6828 10.8155 23.5949C11.3555 24.135 12.2317 24.135 12.7837 23.5949L12.9397 23.4029C13.4918 22.8869 13.4918 22.0107 12.9397 21.4587L9.36329 17.8822L8.41518 16.9101C9.55532 16.8021 11.3195 16.4781 12.6157 15.65C14.1399 14.6778 14.812 14.0898 14.2119 12.8896ZM7.21503 3.08439C8.87123 3.08439 10.2154 4.42855 10.2154 6.07276C10.2154 7.72897 8.87123 9.06113 7.21503 9.06113C5.55882 9.06113 4.21465 7.72897 4.21465 6.07276C4.21465 4.42855 5.55882 3.08439 7.21503 3.08439ZM7.21503 12.1455C10.5754 12.1455 13.2878 9.43318 13.2878 6.07276C13.2878 2.72434 10.5754 0 7.21503 0C3.85461 0 1.14227 2.72434 1.14227 6.07276C1.14227 9.43318 3.85461 12.1455 7.21503 12.1455Z" fill="#7B9095"/>
</svg>
