<svg width="20" height="17" viewBox="0 0 20 17" fill="none" xmlns="http://www.w3.org/2000/svg">
<path fill-rule="evenodd" clip-rule="evenodd" d="M10.0028 0.000488281C14.1388 0.00348828 17.8527 2.90249 19.9387 7.75649C20.0208 7.94549 20.0208 8.15949 19.9387 8.34849C17.8537 13.2035 14.1388 16.1025 10.0028 16.1055H9.99675C5.86075 16.1025 2.14675 13.2035 0.06075 8.34849C-0.02025 8.15949 -0.02025 7.94549 0.06075 7.75649C2.14675 2.90249 5.86175 0.00348828 9.99675 0.000488281H10.0028ZM9.99975 1.50049C6.56375 1.50149 3.42975 3.94449 1.56975 8.05249C3.42975 12.1615 6.56275 14.6045 9.99975 14.6055C13.4368 14.6045 16.5697 12.1615 18.4297 8.05249C16.5697 3.94449 13.4368 1.50149 9.99975 1.50049ZM9.99945 4.14129C12.1565 4.14129 13.9115 5.89629 13.9115 8.05329C13.9115 10.2093 12.1565 11.9633 9.99945 11.9633C7.84245 11.9633 6.08845 10.2093 6.08845 8.05329C6.08845 5.89629 7.84245 4.14129 9.99945 4.14129ZM9.99945 5.64129C8.66945 5.64129 7.58845 6.72329 7.58845 8.05329C7.58845 9.38229 8.66945 10.4633 9.99945 10.4633C11.3295 10.4633 12.4115 9.38229 12.4115 8.05329C12.4115 6.72329 11.3295 5.64129 9.99945 5.64129Z" fill="#B0C0D2"/>
</svg>
