<svg width="29" height="30" viewBox="0 0 29 30" fill="none" xmlns="http://www.w3.org/2000/svg">
<path fill-rule="evenodd" clip-rule="evenodd" d="M14.1411 0.75C21.5249 0.75 27.5309 6.756 27.5309 14.1397C27.5309 17.6234 26.194 20.8006 24.0063 23.1852L28.3111 27.481C28.7139 27.8838 28.7153 28.5356 28.3124 28.9385C28.1117 29.142 27.8463 29.2423 27.5823 29.2423C27.3197 29.2423 27.0557 29.142 26.8535 28.9412L22.4968 24.5966C20.205 26.432 17.2991 27.5309 14.1411 27.5309C6.75738 27.5309 0.75 21.5235 0.75 14.1397C0.75 6.756 6.75738 0.75 14.1411 0.75ZM14.1411 2.8125C7.8945 2.8125 2.8125 7.89312 2.8125 14.1397C2.8125 20.3864 7.8945 25.4684 14.1411 25.4684C20.3864 25.4684 25.4684 20.3864 25.4684 14.1397C25.4684 7.89312 20.3864 2.8125 14.1411 2.8125Z" fill="#1D1D1D"/>
</svg>
