<svg width="28" height="24" viewBox="0 0 28 24" fill="none" xmlns="http://www.w3.org/2000/svg">
<path d="M28 2.79505C26.9816 3.31603 25.8365 3.57674 24.691 3.70687C25.8365 2.92518 26.7274 1.88324 27.2363 0.449988C26.0908 1.10155 24.9453 1.62252 23.5455 1.88278C22.5271 0.710246 21.0002 0.0591431 19.3457 0.0591431C16.1639 0.0591431 13.6186 2.66447 13.6186 5.92135C13.6186 6.44233 13.6186 6.83317 13.7457 7.22402C9.03655 6.9633 4.83677 4.61869 1.90964 1.10109C1.40067 2.01291 1.14596 2.92473 1.14596 4.09726C1.14596 6.18161 2.16435 7.87512 3.69125 8.91752C2.80045 8.91752 1.90964 8.65681 1.14596 8.13583V8.26596C1.14596 11.132 3.05515 13.4771 5.72758 13.998C5.21861 14.1282 4.70919 14.2588 4.20022 14.2588C3.81838 14.2588 3.43655 14.2588 3.18184 14.1286C3.94552 16.4737 5.98184 18.1672 8.52713 18.1672C6.61794 19.7306 4.07265 20.6424 1.39978 20.6424C0.890808 20.6424 0.508969 20.6424 0 20.5123C2.54529 22.2058 5.47287 23.1176 8.78184 23.1176C19.3453 23.1176 25.0724 14.2592 25.0724 6.44278V5.6611C26.3455 5.00954 27.2363 3.96759 28 2.79505Z" fill="#7B9095"/>
</svg>
