<svg width="28" height="17" viewBox="0 0 28 17" fill="none" xmlns="http://www.w3.org/2000/svg">
<path d="M27.8512 15.1722C27.8171 15.0956 27.7856 15.0315 27.7562 14.9804C27.2701 14.0605 26.3421 12.9308 24.972 11.5919L24.9426 11.5615L24.9281 11.5458L24.9136 11.531H24.8991C24.2771 10.9072 23.8834 10.4883 23.7185 10.2732C23.4173 9.86499 23.3491 9.45095 23.5144 9.03199C23.6316 8.71519 24.0687 8.04574 24.8267 7.02319C25.225 6.4819 25.5407 6.0477 25.7742 5.71969C27.4554 3.36901 28.184 1.867 27.9607 1.21234L27.873 1.05909C27.8146 0.966787 27.6638 0.882546 27.4209 0.805922C27.1781 0.729299 26.867 0.7172 26.4883 0.767834L22.2899 0.799201C22.1928 0.788895 22.0957 0.791583 21.9981 0.80637C21.9009 0.822053 21.8379 0.837289 21.8085 0.852524C21.7791 0.868207 21.7552 0.880753 21.7356 0.890611L21.6773 0.936765C21.6287 0.967235 21.5754 1.02101 21.5171 1.09808C21.4587 1.1747 21.4097 1.26387 21.3714 1.36648C20.9146 2.60322 20.3948 3.75302 19.8116 4.81634C19.452 5.44994 19.1214 5.99975 18.8206 6.46442C18.5193 6.92999 18.2667 7.27233 18.0626 7.49145C17.8585 7.71101 17.6736 7.88801 17.5087 8.0202C17.3434 8.15373 17.2169 8.20929 17.13 8.18913C17.0422 8.16896 16.9596 8.14835 16.882 8.12729C16.7461 8.03543 16.6362 7.91041 16.554 7.75179C16.4713 7.59361 16.4155 7.39421 16.3861 7.15403C16.3571 6.91386 16.3396 6.70684 16.3354 6.53298C16.3303 6.35912 16.3328 6.11401 16.3426 5.79721C16.3524 5.48041 16.3571 5.26623 16.3571 5.15331C16.3571 4.76526 16.3644 4.34361 16.3793 3.88834C16.3938 3.43353 16.4061 3.07327 16.4155 2.80755C16.4253 2.54228 16.43 2.26088 16.43 1.96424C16.43 1.6685 16.4129 1.43549 16.3788 1.26656C16.3448 1.09808 16.2936 0.934973 16.2259 0.7759C16.1577 0.617724 16.058 0.494947 15.9268 0.408465C15.7956 0.321535 15.6328 0.252529 15.4385 0.201447C14.923 0.0786697 14.2673 0.0128002 13.4706 0.002046C11.6628 -0.01767 10.5014 0.105107 9.98631 0.370377C9.78223 0.483296 9.59732 0.636096 9.43244 0.830567C9.25733 1.05551 9.23304 1.17873 9.35958 1.198C9.94285 1.29031 10.3557 1.51032 10.5985 1.85759L10.6863 2.04131C10.7541 2.17484 10.8222 2.40964 10.8904 2.74661C10.9586 3.08402 11.002 3.45683 11.0216 3.86594C11.0702 4.61201 11.0702 5.25054 11.0216 5.78243C10.9731 6.31431 10.927 6.7279 10.8832 7.02364C10.8393 7.32028 10.7737 7.56001 10.6863 7.74417C10.5986 7.92878 10.5406 8.04126 10.5112 8.08203C10.4818 8.12281 10.458 8.14835 10.4384 8.15866C10.3118 8.20929 10.181 8.23528 10.0447 8.23528C9.90834 8.23528 9.74346 8.16358 9.54875 8.0202C9.35447 7.8777 9.15252 7.68054 8.94375 7.43006C8.73456 7.18002 8.49938 6.82962 8.2365 6.37973C7.97405 5.9303 7.7018 5.39886 7.42018 4.78542L7.18713 4.34047C7.04141 4.05459 6.84202 3.63786 6.58937 3.09119C6.33672 2.54452 6.11304 2.01577 5.91876 1.50405C5.84079 1.28986 5.72448 1.12631 5.56897 1.01339L5.49611 0.967235C5.44754 0.926459 5.36957 0.882994 5.26263 0.837289C5.15527 0.791135 5.04407 0.757976 4.92733 0.737364L0.933061 0.767834C0.5249 0.767834 0.247964 0.865518 0.102253 1.05954L0.0438837 1.1514C0.0144859 1.20293 0 1.28493 0 1.39695C0 1.50987 0.0293978 1.64744 0.0877674 1.81054C0.671037 3.25205 1.30501 4.64203 1.9901 5.98048C2.67563 7.31983 3.2704 8.39838 3.77613 9.2157C4.28143 10.0339 4.79653 10.8051 5.32143 11.531C5.84633 12.2569 6.19357 12.7216 6.36356 12.9259C6.53356 13.1307 6.66691 13.2839 6.76448 13.3861L7.12876 13.7544C7.36181 13.9995 7.70478 14.2935 8.1564 14.6358C8.60845 14.9786 9.10863 15.3156 9.65782 15.6472C10.2066 15.9796 10.8461 16.2498 11.5746 16.46C12.3036 16.6697 13.013 16.7539 13.7028 16.7127H15.3793C15.7197 16.6823 15.9771 16.5702 16.1518 16.3753L16.2101 16.2987C16.2489 16.2377 16.2855 16.1427 16.3196 16.0155C16.3533 15.8878 16.3707 15.7471 16.3707 15.5938C16.3605 15.1543 16.3925 14.7577 16.4653 14.4055C16.5382 14.0528 16.6208 13.7871 16.7133 13.6079C16.8057 13.4296 16.9097 13.2785 17.0269 13.1558C17.1436 13.033 17.2258 12.9595 17.2748 12.9335C17.3234 12.9084 17.3626 12.8905 17.3916 12.8797C17.6246 12.7982 17.899 12.8775 18.2151 13.1172C18.5308 13.3579 18.8274 13.6536 19.1043 14.0067C19.3813 14.3593 19.714 14.755 20.103 15.195C20.4916 15.6346 20.8315 15.9613 21.1234 16.1759L21.4152 16.3605C21.6095 16.4829 21.8622 16.5953 22.1732 16.6979C22.4842 16.7997 22.7565 16.8256 22.9895 16.7746L26.7213 16.7127C27.0907 16.7127 27.3775 16.6491 27.5815 16.5209C27.7856 16.3941 27.907 16.2525 27.9458 16.0993C27.9846 15.946 27.9871 15.7731 27.9531 15.5782C27.919 15.3841 27.8849 15.2488 27.8512 15.1722Z" fill="#7B9095"/>
</svg>
